<?xml version="1.0" encoding="utf-8"?>
<!-- Generator: Adobe Illustrator 23.0.3, SVG Export Plug-In . SVG Version: 6.00 Build 0)  -->
<svg version="1.1" id="Layer_1" xmlns="http://www.w3.org/2000/svg" xmlns:xlink="http://www.w3.org/1999/xlink" x="0px" y="0px"
	 viewBox="0 0 496 81" style="enable-background:new 0 0 496 81;" xml:space="preserve">
<style type="text/css">
	.st0{fill:#FFFFFF;}
</style>
<g>
	<path class="st0" d="M19.35,41.09v-0.15c0-15.48,11.91-27.61,27.99-27.61c10.85,0,17.83,4.55,22.53,11.08L58.8,32.97
		c-3.03-3.79-6.52-6.22-11.61-6.22c-7.44,0-12.67,6.3-12.67,14.03v0.15c0,7.97,5.23,14.19,12.67,14.19c5.54,0,8.8-2.58,11.99-6.45
		l11.08,7.89c-5.01,6.9-11.76,11.99-23.52,11.99C31.56,68.56,19.35,56.95,19.35,41.09z"/>
	<path class="st0" d="M76.54,14.39h14.72V54.6h25.72v12.9H76.54V14.39z"/>
	<path class="st0" d="M141.62,14.01h14.19l22.61,53.48h-15.78l-3.87-9.48h-20.48l-3.79,9.48h-15.48L141.62,14.01z M154.52,46.55
		l-5.92-15.1l-5.99,15.1H154.52z"/>
	<path class="st0" d="M196.39,40.49l-17.45-26.1h16.92l9.41,14.94l9.48-14.94h16.54l-17.45,25.95l18.21,27.16h-16.92l-10.17-16.01
		l-10.24,16.01h-16.54L196.39,40.49z"/>
	<path class="st0" d="M231.73,41.09v-0.15c0-15.25,12.29-27.61,28.68-27.61c16.38,0,28.52,12.21,28.52,27.46v0.15
		c0,15.25-12.29,27.61-28.68,27.61C243.87,68.56,231.73,56.34,231.73,41.09z M273.91,41.09v-0.15c0-7.66-5.54-14.34-13.66-14.34
		c-8.04,0-13.43,6.52-13.43,14.18v0.15c0,7.66,5.54,14.34,13.58,14.34C268.52,55.28,273.91,48.75,273.91,41.09z"/>
	<path class="st0" d="M296.58,14.39h13.73l21.85,28.07V14.39h14.57v53.1h-12.9l-22.68-29.13v29.13h-14.57V14.39z"/>
	<path class="st0" d="M354.69,52.7h15.02v14.79h-15.02V52.7z"/>
	<path class="st0" d="M377.67,14.39h13.73l21.85,28.07V14.39h14.57v53.1h-12.9l-22.68-29.13v29.13h-14.57V14.39z"/>
	<path class="st0" d="M435.54,56.8l26.63-29.97h-25.72V14.39h46.05v10.7l-26.63,29.97h26.63v12.44h-46.96V56.8z"/>
</g>
</svg>
