<?xml version="1.0" encoding="utf-8"?>
<!-- Generator: Adobe Illustrator 23.0.3, SVG Export Plug-In . SVG Version: 6.00 Build 0)  -->
<svg version="1.1" id="Layer_1" xmlns="http://www.w3.org/2000/svg" xmlns:xlink="http://www.w3.org/1999/xlink" x="0px" y="0px"
	 viewBox="0 0 320 320" style="enable-background:new 0 0 320 320;" xml:space="preserve">
<style type="text/css">
	.st0{fill:#FF6E19;}
</style>
<g>
	<path d="M172.82,117.4"/>
</g>
<g>
	<g>
		<path d="M283.62,84.82C238.8,23.11,152.44,9.44,90.74,54.27c-2.05,1.49-4.03,3.03-5.97,4.6c60.56-40.4,143.18-25.52,186.89,34.64
			c43.71,60.16,32.33,143.34-24.8,188.45c2.1-1.36,4.18-2.77,6.22-4.26C314.77,232.88,328.45,146.52,283.62,84.82z"/>
	</g>
	<g>
		<path d="M254.91,105.68C215.96,52.05,140.9,40.17,87.28,79.13c-6.8,4.94-12.92,10.47-18.36,16.45c3.13-2.84,6.42-5.56,9.92-8.1
			c52.16-37.9,125.56-25.8,163.94,27.01s27.2,126.36-24.97,164.26c-3.5,2.54-7.09,4.84-10.76,6.93c7.37-3.32,14.52-7.44,21.32-12.38
			C281.98,234.35,293.87,159.3,254.91,105.68z"/>
	</g>
	<g>
		<path d="M226.29,126.47c-32.07-44.14-93.85-53.92-137.98-21.85c-10.54,7.66-19.1,17.02-25.62,27.43
			c5.31-6.89,11.66-13.15,19.04-18.52c42.12-30.6,101.38-20.83,132.36,21.81c30.98,42.65,21.96,102.02-20.16,132.62
			c-7.38,5.36-15.3,9.46-23.49,12.39c11.91-2.99,23.46-8.23,34-15.89C248.57,232.39,258.36,170.61,226.29,126.47z"/>
	</g>
	<g>
		<path d="M99.83,266.84c-2.57-2.03-13.81-11.64-26.91-29.66s-19.75-33.95-20.9-37.7c-1.16-3.75-1.57-6.76-1.12-8.78
			c0.22-1.01,0.66-1.78,1.33-2.26l-15.48,11.28c-3.22,2.54-0.77,12.04,5.63,24.45c-15.67,14.59-28.58,25.11-29.68,25.99
			c-5.13,4.1-3.08,16.01,4.99,27.13c8.07,11.11,18.65,16.75,24.25,13.14c5.6-3.61,13.63-8.8,34.05-20.04
			c9.77,9.84,17.99,15.05,21.39,12.78l15.17-11c-0.29,0.14-0.55,0.2-0.8,0.25C109.18,273,104.96,270.9,99.83,266.84z"/>
	</g>
	<g>
		<path class="st0" d="M152.54,183.85c-18.53-25.51-27.65-50.1-28.59-60.73c-11.33,25.01-32.86,51.47-53.99,73.75l-6.67,7.05
			c1.42,12.28,27.73,47.65,38.37,52.88l8.51-3.97c25.77-12.25,55.09-23.82,80.99-28.15C182.01,219.03,167.19,204,152.54,183.85z"/>
	</g>
	<g>
		<path class="st0" d="M129.26,114.6c-1.55,0.87-5.31,6.15,0.45,20.75c0.15,0.39,0.32,0.77,0.48,1.16
			c9.67,6.3,21.43,17.99,32.24,32.87c11.51,15.84,19.25,31.6,21.83,42.94c7.3,6.5,13.54,10.46,17.7,10.95
			c1.18,0.03,2.94-0.16,4.27-1.13c9.22-6.7-0.73-36.11-22.22-65.69C163.13,127.7,138.99,109.16,129.26,114.6z"/>
	</g>
</g>
</svg>
