<?xml version="1.0" encoding="utf-8"?>
<!-- Generator: Adobe Illustrator 23.0.3, SVG Export Plug-In . SVG Version: 6.00 Build 0)  -->
<svg version="1.1" id="Layer_1" xmlns="http://www.w3.org/2000/svg" xmlns:xlink="http://www.w3.org/1999/xlink" x="0px" y="0px"
	 viewBox="0 0 320 75" style="enable-background:new 0 0 320 75;" xml:space="preserve">
<style type="text/css">
	.st0{fill:#FF6E19;}
</style>
<g>
	<path d="M109.66,55.99v-0.56c-0.01-0.35-0.02-0.64-0.04-0.89c-0.02-0.25-0.06-0.5-0.11-0.76c-0.05-0.26-0.13-0.48-0.23-0.65
		c-0.1-0.17-0.23-0.33-0.38-0.48c-0.15-0.15-0.35-0.25-0.58-0.32c-0.24-0.07-0.51-0.1-0.82-0.1c-0.41,0-0.75,0.07-1.04,0.2
		c-0.29,0.13-0.52,0.3-0.68,0.5c-0.16,0.21-0.29,0.48-0.38,0.83c-0.09,0.35-0.15,0.68-0.17,1.01c-0.03,0.33-0.04,0.74-0.04,1.22
		v6.27c0,0.42,0.02,0.8,0.05,1.14c0.04,0.34,0.11,0.68,0.21,1.01c0.1,0.34,0.24,0.62,0.41,0.85c0.17,0.23,0.39,0.41,0.67,0.55
		s0.6,0.21,0.97,0.21s0.69-0.07,0.96-0.22s0.48-0.33,0.63-0.55c0.15-0.22,0.27-0.51,0.36-0.85c0.09-0.35,0.15-0.68,0.17-1.01
		c0.03-0.33,0.04-0.71,0.04-1.14v-0.63h2.51v0.63c0,0.91-0.08,1.7-0.24,2.39c-0.16,0.69-0.42,1.29-0.77,1.82
		c-0.36,0.53-0.84,0.93-1.45,1.2s-1.35,0.41-2.21,0.41c-0.74,0-1.39-0.1-1.95-0.31s-1.02-0.5-1.38-0.87
		c-0.36-0.37-0.65-0.83-0.88-1.38s-0.38-1.14-0.48-1.77c-0.09-0.63-0.14-1.34-0.14-2.13v-5.01c0-0.79,0.05-1.5,0.14-2.13
		c0.09-0.63,0.25-1.22,0.48-1.77c0.23-0.55,0.52-1.01,0.88-1.38c0.36-0.37,0.82-0.65,1.38-0.86s1.21-0.31,1.95-0.31
		c0.82,0,1.52,0.12,2.12,0.36c0.59,0.24,1.07,0.6,1.42,1.07c0.36,0.47,0.62,1.02,0.8,1.64c0.18,0.62,0.29,1.35,0.32,2.17
		c0.01,0.12,0.01,0.32,0.01,0.58H109.66z M117.34,50.35h-2.51v17.55h6.9v-1.88h-4.39V50.35z M124.02,67.91h2.51V50.35h-2.51V67.91z
		 M136.17,63.79l-2.49-13.44h-3.47v17.55h2.51V54.05l2.51,13.85h1.88l2.51-13.85v13.85h2.51V50.35h-3.47L136.17,63.79z
		 M150.81,50.35l3.76,17.55h-2.51l-0.94-4.39h-3.13l-0.94,4.39h-2.51l3.76-17.55H150.81z M150.81,61.64l-1.25-7.52l-1.25,7.52
		H150.81z M155.23,52.58h3.13v15.32h2.51V52.58h3.13v-2.23h-8.78V52.58z M166.25,67.91h6.9v-1.88h-4.39v-6.27h3.13v-1.88h-3.13
		v-5.64h4.39v-1.88h-6.9V67.91z M189.95,55.99c0-0.26,0-0.45-0.01-0.58c-0.03-0.83-0.14-1.55-0.32-2.17
		c-0.18-0.62-0.45-1.17-0.8-1.64c-0.36-0.47-0.83-0.83-1.42-1.07c-0.59-0.24-1.3-0.36-2.12-0.36c-0.74,0-1.39,0.1-1.95,0.31
		s-1.02,0.5-1.38,0.86c-0.36,0.37-0.65,0.82-0.88,1.38c-0.23,0.55-0.38,1.14-0.48,1.77c-0.09,0.63-0.14,1.34-0.14,2.13v5.01
		c0,0.79,0.05,1.5,0.14,2.13c0.09,0.63,0.25,1.22,0.48,1.77s0.52,1.01,0.88,1.38c0.36,0.37,0.82,0.66,1.38,0.87s1.21,0.31,1.95,0.31
		c0.86,0,1.6-0.14,2.21-0.41s1.09-0.67,1.45-1.2c0.36-0.53,0.61-1.13,0.77-1.82c0.16-0.69,0.24-1.48,0.24-2.39v-0.63h-2.51v0.63
		c0,0.43-0.01,0.81-0.04,1.14c-0.03,0.33-0.08,0.66-0.17,1.01c-0.09,0.35-0.21,0.63-0.36,0.85c-0.15,0.22-0.36,0.41-0.63,0.55
		s-0.59,0.22-0.96,0.22s-0.7-0.07-0.97-0.21s-0.5-0.32-0.67-0.55c-0.17-0.23-0.3-0.51-0.41-0.85c-0.1-0.34-0.17-0.67-0.21-1.01
		c-0.04-0.34-0.05-0.72-0.05-1.14v-6.27c0-0.48,0.01-0.89,0.04-1.22c0.03-0.33,0.08-0.67,0.17-1.01c0.09-0.35,0.21-0.62,0.38-0.83
		c0.16-0.21,0.39-0.37,0.68-0.5c0.29-0.13,0.64-0.2,1.04-0.2c0.31,0,0.59,0.03,0.82,0.1c0.24,0.07,0.43,0.18,0.58,0.32
		c0.15,0.15,0.28,0.31,0.38,0.48c0.1,0.17,0.18,0.39,0.23,0.65c0.05,0.26,0.09,0.51,0.11,0.76c0.02,0.24,0.03,0.54,0.04,0.89v0.56
		H189.95z M199.2,59.13l2.82,8.78h-2.49l-2.53-8.15h-1.88v8.15h-2.51V50.35h3.13c1.87,0,3.27,0.36,4.22,1.09s1.42,1.93,1.42,3.61
		c0,1.04-0.19,1.92-0.56,2.63C200.46,58.38,199.92,58.87,199.2,59.13z M198.89,55.05c0-1-0.26-1.72-0.78-2.16s-1.31-0.66-2.35-0.66
		h-0.63v5.64h0.63c1.04,0,1.83-0.22,2.35-0.66C198.62,56.77,198.89,56.05,198.89,55.05z M204.59,67.91h2.51V50.35h-2.51V67.91z
		 M214.73,52.23c0.75,0,1.32,0.24,1.71,0.72s0.64,1.12,0.75,1.92c0.03,0.22,0.04,0.39,0.05,0.5l2.51-0.63
		c-0.03-0.24-0.05-0.43-0.07-0.57c-0.2-1.27-0.71-2.26-1.55-2.95c-0.84-0.7-1.97-1.04-3.39-1.04c-1.33,0-2.39,0.38-3.19,1.15
		c-0.8,0.76-1.2,1.79-1.2,3.09c0,0.89,0.17,1.68,0.51,2.38s0.8,1.27,1.38,1.72l3.13,2.51c0.29,0.24,0.53,0.43,0.7,0.59
		c0.17,0.16,0.36,0.37,0.57,0.64s0.36,0.55,0.47,0.87c0.1,0.32,0.15,0.66,0.15,1.03c0,1.25-0.63,1.88-1.88,1.88
		c-1.55,0-2.38-1.25-2.51-3.76l-2.51,0.63c0.1,1.61,0.56,2.87,1.4,3.8s2.04,1.39,3.62,1.39c1.34,0,2.41-0.36,3.2-1.09
		c0.79-0.72,1.19-1.73,1.19-3.02c0-1.88-0.84-3.5-2.51-4.85l-3.13-2.51c-0.84-0.67-1.25-1.49-1.25-2.48c0-0.6,0.16-1.07,0.49-1.41
		C213.67,52.4,214.13,52.23,214.73,52.23z M222.7,67.91h2.51V50.35h-2.51V67.91z M232.84,52.23c0.75,0,1.32,0.24,1.71,0.72
		s0.64,1.12,0.75,1.92c0.03,0.22,0.04,0.39,0.05,0.5l2.51-0.63c-0.03-0.24-0.05-0.43-0.07-0.57c-0.2-1.27-0.71-2.26-1.55-2.95
		c-0.84-0.7-1.97-1.04-3.39-1.04c-1.33,0-2.39,0.38-3.19,1.15c-0.8,0.76-1.2,1.79-1.2,3.09c0,0.89,0.17,1.68,0.51,2.38
		s0.8,1.27,1.38,1.72l3.13,2.51c0.29,0.24,0.53,0.43,0.7,0.59c0.17,0.16,0.36,0.37,0.57,0.64s0.36,0.55,0.47,0.87
		c0.1,0.32,0.15,0.66,0.15,1.03c0,1.25-0.63,1.88-1.88,1.88c-1.55,0-2.38-1.25-2.51-3.76l-2.51,0.63c0.1,1.61,0.56,2.87,1.4,3.8
		s2.04,1.39,3.62,1.39c1.34,0,2.41-0.36,3.2-1.09c0.79-0.72,1.19-1.73,1.19-3.02c0-1.88-0.84-3.5-2.51-4.85l-3.13-2.51
		c-0.84-0.67-1.25-1.49-1.25-2.48c0-0.6,0.16-1.07,0.49-1.41C231.78,52.4,232.24,52.23,232.84,52.23z M250.95,50.35l3.76,17.55
		h-2.51l-0.94-4.39h-3.13l-0.94,4.39h-2.51l3.76-17.55H250.95z M250.95,61.64l-1.25-7.52l-1.25,7.52H250.95z M266.21,55.99
		c0-0.26,0-0.45-0.01-0.58c-0.03-0.83-0.14-1.55-0.32-2.17c-0.18-0.62-0.45-1.17-0.8-1.64c-0.36-0.47-0.83-0.83-1.42-1.07
		c-0.59-0.24-1.3-0.36-2.12-0.36c-0.74,0-1.39,0.1-1.95,0.31s-1.02,0.5-1.38,0.86c-0.36,0.37-0.65,0.82-0.88,1.38
		c-0.23,0.55-0.38,1.14-0.48,1.77c-0.09,0.63-0.14,1.34-0.14,2.13v5.01c0,0.79,0.05,1.5,0.14,2.13c0.09,0.63,0.25,1.22,0.48,1.77
		s0.52,1.01,0.88,1.38c0.36,0.37,0.82,0.66,1.38,0.87s1.21,0.31,1.95,0.31c0.86,0,1.6-0.14,2.21-0.41s1.09-0.67,1.45-1.2
		c0.36-0.53,0.61-1.13,0.77-1.82c0.16-0.69,0.24-1.48,0.24-2.39v-0.63h-2.51v0.63c0,0.43-0.01,0.81-0.04,1.14
		c-0.03,0.33-0.08,0.66-0.17,1.01c-0.09,0.35-0.21,0.63-0.36,0.85c-0.15,0.22-0.36,0.41-0.63,0.55s-0.59,0.22-0.96,0.22
		s-0.7-0.07-0.97-0.21s-0.5-0.32-0.67-0.55c-0.17-0.23-0.3-0.51-0.41-0.85c-0.1-0.34-0.17-0.67-0.21-1.01
		c-0.04-0.34-0.05-0.72-0.05-1.14v-6.27c0-0.48,0.01-0.89,0.04-1.22c0.03-0.33,0.08-0.67,0.17-1.01c0.09-0.35,0.21-0.62,0.38-0.83
		c0.16-0.21,0.39-0.37,0.68-0.5c0.29-0.13,0.64-0.2,1.04-0.2c0.31,0,0.59,0.03,0.82,0.1c0.24,0.07,0.43,0.18,0.58,0.32
		c0.15,0.15,0.28,0.31,0.38,0.48c0.1,0.17,0.18,0.39,0.23,0.65c0.05,0.26,0.09,0.51,0.11,0.76c0.02,0.24,0.03,0.54,0.04,0.89v0.56
		H266.21z M267.61,52.58h3.13v15.32h2.51V52.58h3.13v-2.23h-8.78V52.58z M278.76,67.91h2.51V50.35h-2.51V67.91z M293.18,51.64
		c0.76,0.98,1.14,2.4,1.14,4.25v6.37c0,0.91-0.09,1.71-0.26,2.41c-0.17,0.7-0.45,1.3-0.82,1.82c-0.37,0.52-0.87,0.92-1.5,1.19
		c-0.63,0.27-1.38,0.41-2.26,0.41c-0.88,0-1.64-0.13-2.27-0.4s-1.13-0.66-1.5-1.18c-0.37-0.52-0.64-1.12-0.81-1.82
		c-0.17-0.7-0.25-1.5-0.25-2.42V55.9c0-0.92,0.08-1.72,0.25-2.41s0.44-1.28,0.81-1.79c0.37-0.51,0.87-0.89,1.5-1.14
		c0.63-0.25,1.39-0.38,2.27-0.38C291.19,50.18,292.42,50.66,293.18,51.64z M291.81,55.27c0-1.02-0.17-1.78-0.5-2.28
		s-0.94-0.75-1.83-0.75c-0.89,0-1.5,0.25-1.83,0.75c-0.33,0.5-0.5,1.26-0.5,2.28v7.62c0,1.03,0.17,1.81,0.5,2.34
		c0.34,0.53,0.95,0.79,1.83,0.79s1.49-0.26,1.83-0.79c0.34-0.53,0.5-1.31,0.5-2.34V55.27z M303.78,61.21l-4.39-10.85h-1.88v17.55
		h2.51V56.23l4.49,11.68h1.78V50.35h-2.51V61.21z M119.64,40.35c8.21,0,12.84-4.01,15.62-8.92l-9.11-5.14
		c-1.37,2.45-3.11,4.15-6.23,4.15c-3.63,0-6.18-3.02-6.18-7.32v-0.09c0-3.96,2.45-7.22,6.18-7.22c3.02,0,4.77,1.65,5.99,4.01
		l9.11-5.33c-2.78-5.05-7.69-8.59-14.96-8.59c-9.86,0-17.56,7.36-17.56,17.23v0.09C102.51,33.46,110.48,40.35,119.64,40.35z
		 M213.17,39.65h-10.43h-1.89h-10.1l-1.75-4.44h-11.56l-1.7,4.44h-11.8h0h-26.57V6.61h11.04v23.6h15.53v9.44l13.92-33.27h10.95
		l13.19,31.53l10.03-15.06L201.33,6.61h12.55l4.77,7.88l4.81-7.88h12.32L225.07,22.7l11.19,16.94H223.7l-5.24-8.59L213.17,39.65z
		 M186.28,27.38l-3.02-8.02l-3.02,8.02H186.28z M252.35,40.35c-10.19,0-17.98-7.55-17.98-17.13v-0.09c0-9.58,7.88-17.23,18.08-17.23
		c10.19,0,17.98,7.55,17.98,17.13v0.09C270.42,32.71,262.54,40.35,252.35,40.35z M252.44,30.59c4.2,0,6.84-3.49,6.84-7.36v-0.09
		c0-3.92-2.69-7.46-6.94-7.46c-4.2,0-6.84,3.49-6.84,7.36v0.09C245.5,27.05,248.19,30.59,252.44,30.59z M295.53,6.61v14.58
		L283.78,6.61h-10.34v33.04h10.95V24.4l12.27,15.24h9.82V6.61H295.53z"/>
	<g>
		<path d="M48.3,25.13"/>
	</g>
	<g>
		<g>
			<path d="M75.73,17.06C64.64,1.79,43.26-1.6,27.98,9.5c-0.51,0.37-1,0.75-1.48,1.14c14.99-10,35.44-6.32,46.26,8.58
				c10.82,14.89,8,35.48-6.14,46.65c0.52-0.34,1.03-0.69,1.54-1.05C83.44,53.71,86.83,32.33,75.73,17.06z"/>
		</g>
		<g>
			<path d="M68.63,22.22C58.98,8.95,40.4,6.01,27.13,15.65c-1.68,1.22-3.2,2.59-4.54,4.07c0.77-0.7,1.59-1.38,2.46-2
				c12.91-9.38,31.08-6.39,40.58,6.69s6.73,31.28-6.18,40.66c-0.87,0.63-1.76,1.2-2.66,1.72c1.82-0.82,3.59-1.84,5.28-3.06
				C75.33,54.08,78.27,35.5,68.63,22.22z"/>
		</g>
		<g>
			<path d="M61.54,27.37c-7.94-10.93-23.23-13.35-34.16-5.41c-2.61,1.9-4.73,4.21-6.34,6.79c1.32-1.71,2.89-3.26,4.71-4.58
				c10.43-7.57,25.1-5.16,32.77,5.4c7.67,10.56,5.44,25.26-4.99,32.83c-1.83,1.33-3.79,2.34-5.82,3.07
				c2.95-0.74,5.81-2.04,8.42-3.93C67.06,53.59,69.48,38.3,61.54,27.37z"/>
		</g>
		<g>
			<path d="M30.24,62.12c-0.64-0.5-3.42-2.88-6.66-7.34s-4.89-8.4-5.17-9.33c-0.29-0.93-0.39-1.67-0.28-2.17
				c0.06-0.25,0.16-0.44,0.33-0.56l-3.83,2.79c-0.8,0.63-0.19,2.98,1.39,6.05c-3.88,3.61-7.07,6.21-7.35,6.43
				C7.39,59,7.9,61.95,9.9,64.7c2,2.75,4.62,4.15,6,3.25s3.37-2.18,8.43-4.96c2.42,2.44,4.45,3.73,5.29,3.16l3.76-2.72
				c-0.07,0.04-0.14,0.05-0.2,0.06C32.55,63.64,31.51,63.12,30.24,62.12z"/>
		</g>
		<g>
			<path class="st0" d="M43.28,41.57c-4.59-6.31-6.84-12.4-7.08-15.03c-2.8,6.19-8.13,12.74-13.36,18.26l-1.65,1.75
				c0.35,3.04,6.86,11.8,9.5,13.09l2.11-0.98c6.38-3.03,13.64-5.9,20.05-6.97C50.58,50.28,46.91,46.56,43.28,41.57z"/>
		</g>
		<g>
			<path class="st0" d="M37.52,24.43c-0.38,0.21-1.31,1.52,0.11,5.14c0.04,0.1,0.08,0.19,0.12,0.29c2.39,1.56,5.31,4.45,7.98,8.14
				c2.85,3.92,4.77,7.82,5.4,10.63c1.81,1.61,3.35,2.59,4.38,2.71c0.29,0.01,0.73-0.04,1.06-0.28c2.28-1.66-0.18-8.94-5.5-16.26
				C45.9,27.68,39.93,23.08,37.52,24.43z"/>
		</g>
	</g>
</g>
</svg>
